<svg width="276.297974" height="285.974243" viewBox="0 0 276.298 285.974" fill="none" xmlns="http://www.w3.org/2000/svg" xmlns:xlink="http://www.w3.org/1999/xlink">
	<desc>
			Created with Pixso.
	</desc>
	<defs/>
	<g opacity="0.400065" style="mix-blend-mode:normal">
		<path id="Fill 1" d="M20.67 154.29C25.98 135.62 45.53 124.89 64.33 130.32C83.13 135.74 94.07 155.28 88.75 173.95C83.44 192.62 63.89 203.35 45.09 197.92C26.29 192.49 15.35 172.95 20.67 154.29Z" fill="#231F20" fill-opacity="1.000000" fill-rule="evenodd"/>
		<path id="Fill 3" d="M41.95 81.69L79.75 244.16L197.3 126.56L41.95 81.69Z" fill="#C5CEBD" fill-opacity="1.000000" fill-rule="evenodd"/>
		<path id="Stroke 5" d="M198.787 126.328L41.5214 80.9114L79.1826 247.521L198.787 126.328ZM195.908 127.087L80.0464 244.487L43.5637 83.0917L195.908 127.087Z" clip-rule="evenodd" fill="#231F20" fill-opacity="1.000000" fill-rule="evenodd"/>
		<path id="Stroke 7" d="M64.7225 128.55C45.6571 123.044 25.8917 133.715 20.5767 152.383C15.2616 171.051 26.4091 190.649 45.4745 196.155C64.5398 201.661 84.3052 190.99 89.6202 172.322C94.9353 153.654 83.7878 134.056 64.7225 128.55ZM45.8822 194.723C27.6246 189.45 16.9496 170.682 22.0394 152.806C27.1293 134.928 46.0573 124.71 64.3147 129.983C82.5723 135.255 93.2473 154.023 88.1575 171.9C83.0676 189.777 64.1398 199.995 45.8822 194.723Z" clip-rule="evenodd" fill="#231F20" fill-opacity="1.000000" fill-rule="evenodd"/>
		<path id="Stroke 9" d="M211.62 265.19L210.3 265.93L64.66 1.32L65.98 0.58L211.62 265.19Z" fill="#231F20" fill-opacity="1.000000" fill-rule="nonzero"/>
		<path id="Stroke 11" d="M151.325 215.419C147.882 214.424 144.352 216.213 143.441 219.413C142.53 222.613 144.582 226.014 148.025 227.008C151.467 228.002 154.996 226.213 155.907 223.013C156.818 219.813 154.766 216.412 151.325 215.419ZM148.429 225.589C145.829 224.839 144.279 222.271 144.967 219.854C145.655 217.437 148.321 216.086 150.921 216.837C153.52 217.588 155.069 220.156 154.381 222.573C153.693 224.989 151.028 226.34 148.429 225.589Z" clip-rule="evenodd" fill="#231F20" fill-opacity="1.000000" fill-rule="evenodd"/>
		<path id="Stroke 15" d="M122.686 104.359L157.421 167.694L198.442 126.236L122.686 104.359ZM125.77 106.835L195.564 126.991L157.771 165.186L125.77 106.835Z" clip-rule="evenodd" fill="#231F20" fill-opacity="1.000000" fill-rule="evenodd"/>
		<path id="Stroke 17" d="M242.19 181.1L225.51 222.32L224.08 221.74L240.15 182.03L201.93 169.91L231.94 137.89L202.17 102.94L203.34 101.99L233.97 137.95L204.68 169.21L242.19 181.1Z" fill="#231F20" fill-opacity="1.000000" fill-rule="nonzero"/>
		<path id="Fill 13" d="M148.68 67.95C151.11 59.41 159.73 54.42 167.94 56.79C176.15 59.16 180.83 68 178.4 76.53C175.97 85.07 167.35 90.06 159.14 87.69C150.93 85.32 146.25 76.48 148.68 67.95Z" fill="#231F20" fill-opacity="1.000000" fill-rule="evenodd"/>
	</g>
</svg>
